<?xml version="1.0" encoding="utf-8"?>
<!-- Generator: Adobe Illustrator 18.0.0, SVG Export Plug-In . SVG Version: 6.00 Build 0)  -->
<!DOCTYPE svg PUBLIC "-//W3C//DTD SVG 1.1//EN" "http://www.w3.org/Graphics/SVG/1.1/DTD/svg11.dtd">
<svg version="1.1" id="Layer_1" xmlns="http://www.w3.org/2000/svg" xmlns:xlink="http://www.w3.org/1999/xlink" x="0px" y="0px"
	 viewBox="0 0 32 32" enable-background="new 0 0 32 32" xml:space="preserve">
<g id="XMLID_110_">
	<g id="XMLID_111_">
		<path id="XMLID_115_" fill="#D0D2D3" d="M21,5.7c-0.3-0.2-0.6,0-0.6,0.5v17.3l7,3.5c0.8,0.3,1.4,0.2,1.4-0.6V9.7
			c0,0,0-0.2-0.2-0.2L21,5.7z"/>
		<path id="XMLID_114_" fill="#A6A8AB" d="M11.7,19.1L19.8,6C20,5.7,20.6,5.5,21,5.7l7.7,3.8v0.2l-8.5,13.8L11.7,19.1z"/>
		<path id="XMLID_113_" fill="#808184" d="M4.3,5.8c-0.6-0.3-0.8,0-0.5,0.6l7.8,12.8l8.5,4.3L11.7,9.5l0,0L4.3,5.8z"/>
		<path id="XMLID_112_" fill="#58595B" d="M11.7,26.3c0,0.8-0.5,1.1-1.1,0.8l-6.7-3.4c-0.3-0.2-0.6-0.6-0.6-1.1V6.3
			c0-0.6,0.5-0.8,1-0.6l7.5,3.8l0,0C11.7,9.5,11.7,26.3,11.7,26.3z"/>
	</g>
</g>
</svg>
