<?xml version="1.0" encoding="utf-8"?>
<!-- Generator: Adobe Illustrator 18.0.0, SVG Export Plug-In . SVG Version: 6.00 Build 0)  -->
<!DOCTYPE svg PUBLIC "-//W3C//DTD SVG 1.1//EN" "http://www.w3.org/Graphics/SVG/1.1/DTD/svg11.dtd">
<svg version="1.1" id="Layer_2" xmlns="http://www.w3.org/2000/svg" xmlns:xlink="http://www.w3.org/1999/xlink" x="0px" y="0px"
	 viewBox="0 0 32 32" enable-background="new 0 0 32 32" xml:space="preserve">
<path fill="#CB9A50" d="M23.8,27.5v-3h3.4v-0.8h-5.9v0.8h-2.7l-0.8-2.5h-1l-1.3-1.3h-1v-0.8h1.7c1.4,0,2.5-1.1,2.5-2.5v-0.4h-2.5
	c-0.7,0-1.2,0.2-1.7,0.7v-1.1c3.5-0.2,6.4-3.2,6.4-6.8c0-3.7-3-6.8-6.8-6.8s-6.8,3-6.8,6.8c0,3.6,2.8,6.5,6.4,6.8v1.1
	c-0.5-0.4-1-0.7-1.7-0.7H9.4v0.4c0,1.4,1.1,2.5,2.5,2.5h1.7v0.8h-1l-1.3,0.8H10l-2.2,3c-0.6,0.1-1,0.6-1,1.2c0,0.5,0.3,0.9,0.7,1.1
	l2.1,1.1l4.4,0.9l5.6,0l1.7-0.3v0.8h5.9v-0.8h-5.1v-3.8h0.8v3H23.8z M11.9,19c-0.8,0-1.5-0.5-1.6-1.3h1.6c0.8,0,1.5,0.5,1.6,1.3
	H11.9z M16.2,17.7h1.6c-0.2,0.7-0.9,1.3-1.6,1.3h-1.6C14.7,18.2,15.4,17.7,16.2,17.7z M14.5,15.1v-2.4c0.7,0,1.2,0.1,1.7,0.2
	C15.6,13.8,15,14.6,14.5,15.1z M14.5,11.8v-1.7H17c0,0.7-0.2,1.3-0.4,1.9C16,11.9,15.3,11.8,14.5,11.8z M17.8,10.1h2.1
	c-0.1,1-0.4,2-0.9,2.8c-0.3-0.2-0.8-0.5-1.6-0.7C17.6,11.5,17.8,10.8,17.8,10.1z M17.8,9.2c0-0.8-0.2-1.5-0.4-2.1
	c0.8-0.2,1.3-0.5,1.6-0.7c0.5,0.8,0.9,1.8,0.9,2.8H17.8z M17,9.2h-2.5V7.5c0.8,0,1.5-0.1,2.1-0.2C16.8,7.9,16.9,8.5,17,9.2z
	 M14.5,6.7V4.2c0.5,0.5,1.2,1.3,1.7,2.3C15.7,6.6,15.1,6.6,14.5,6.7z M13.6,4.2v2.4c-0.7,0-1.2-0.1-1.7-0.2
	C12.4,5.5,13.1,4.7,13.6,4.2z M13.6,7.5v1.7h-2.5c0-0.7,0.2-1.3,0.4-1.9C12.1,7.4,12.8,7.5,13.6,7.5z M10.2,9.2H8.1
	c0.1-1,0.4-2,0.9-2.8c0.3,0.2,0.8,0.5,1.6,0.7C10.4,7.7,10.3,8.4,10.2,9.2z M10.2,10.1c0,0.8,0.2,1.5,0.4,2.1
	c-0.8,0.2-1.3,0.5-1.6,0.7c-0.5-0.8-0.9-1.8-0.9-2.8H10.2z M11.1,10.1h2.5v1.7c-0.8,0-1.5,0.1-2.1,0.2
	C11.3,11.4,11.1,10.7,11.1,10.1z M13.6,12.6v2.4c-0.5-0.5-1.2-1.3-1.7-2.3C12.4,12.7,12.9,12.6,13.6,12.6z M15.3,15.4
	c0.6-0.6,1.2-1.4,1.8-2.5c0.7,0.2,1.2,0.4,1.4,0.6C17.7,14.5,16.6,15.2,15.3,15.4z M18.5,5.7c-0.3,0.2-0.7,0.4-1.4,0.6
	c-0.5-1.1-1.2-1.9-1.8-2.5C16.6,4.1,17.7,4.8,18.5,5.7z M12.8,3.8c-0.6,0.6-1.2,1.4-1.8,2.5c-0.7-0.2-1.2-0.4-1.4-0.6
	C10.4,4.8,11.5,4.1,12.8,3.8z M9.6,13.5c0.3-0.2,0.7-0.4,1.4-0.6c0.5,1.1,1.2,1.9,1.8,2.5C11.5,15.2,10.4,14.5,9.6,13.5z M10.4,22.4
	h1.2l1.3-0.8h2.2l1.3,1.3h0.7l0.4,1.1l-0.2-0.2l-3.1-1.2c-0.3-0.1-0.7-0.2-1-0.2c-0.7,0-1.2,0.6-1.2,1.2c0,0.4,0.2,0.8,0.6,1.1
	l1.1,0.6l-0.1,0h-1.3L11.6,24c-0.2-0.5-0.6-0.7-1.1-0.7c-0.4,0-0.7,0.2-1,0.5c-0.2,0.3-0.3,0.7-0.2,1.1l0.1,0.1l-0.3-0.2
	c-0.1-0.1-0.2-0.1-0.4-0.1L10.4,22.4z M10.5,25.3l-0.3-0.8c0-0.1,0-0.2,0-0.3c0.1-0.2,0.5-0.2,0.6,0.1l0.4,1.1H10.5z M19.5,27.9
	h-5.4l-4.1-0.8l-2.1-1c-0.1-0.1-0.2-0.2-0.2-0.3c0-0.2,0.2-0.4,0.4-0.4c0.3,0,0.5,0.1,0.7,0.2l1.4,0.7h3.6l1.6-0.8l-2.4-1.4
	c-0.1-0.1-0.2-0.2-0.2-0.3c0-0.2,0.2-0.4,0.4-0.4c0.3,0,0.5,0,0.7,0.1l2.9,1.1l1.3,0.9h3.1v2.2L19.5,27.9z"/>
</svg>
