<?xml version="1.0" encoding="utf-8"?>
<!-- Generator: Adobe Illustrator 18.0.0, SVG Export Plug-In . SVG Version: 6.00 Build 0)  -->
<!DOCTYPE svg PUBLIC "-//W3C//DTD SVG 1.1//EN" "http://www.w3.org/Graphics/SVG/1.1/DTD/svg11.dtd">
<svg version="1.1" id="Layer_3" xmlns="http://www.w3.org/2000/svg" xmlns:xlink="http://www.w3.org/1999/xlink" x="0px" y="0px"
	 viewBox="0 0 32 32" enable-background="new 0 0 32 32" xml:space="preserve">
<path fill="#CB9A50" d="M4.1,4v15h11c0.2-0.3,0.3-0.7,0.5-1H5.1V5H18v10.1c0.3-0.1,0.6-0.2,1-0.3V4H4.1z"/>
<g>
	<path fill="#CB9A50" d="M11.5,11.7c-1.6,1.2-4.4,0.2-4.4-1.9c0-0.6,0.2-1.1,0.5-1.5H7.5C7.1,8.2,6.8,8,6.8,7.6C6.8,7.3,7.1,7,7.5,7
		H9V6.6C9,6.3,9.3,6,9.7,6s0.7,0.2,0.7,0.6V7H12c0.4,0,0.7,0.3,0.7,0.6c0,0.3-0.3,0.6-0.7,0.6h-0.1c0.3,0.4,0.5,0.9,0.5,1.5
		C12.4,10.5,12.1,11.2,11.5,11.7z M8.2,15.3v-1.7c0-0.2,0-0.4,0-0.5c0-0.3,0.3-0.6,0.6-0.6c0.1,0,0.3,0,0.4,0
		c0.4,0.1,0.4,0.5,0.5,0.9c0,0.1,0,1,0,1.1c0,0,0.2,0,0.8,0c0.5,0,0.6,0,0.6,0H15c0,0,0.5,0.1,0.5,0.4c0,0.3,0,0.5-0.2,0.7
		C15.1,16,14.9,16,14.9,16H9.2C8.6,16,8.2,15.7,8.2,15.3z M11,9.8c0-1.4-2.3-1.5-2.3,0c0,0.9,0.8,1.2,1.4,1.1
		C10.5,10.7,11,10.4,11,9.8z M15.2,10.3v1.5c0,0.2,0,0.4-0.1,0.5c0,0.1-0.1,0.2-0.2,0.2c-0.1,0.1-0.3,0.1-0.4,0.1
		c-0.1,0-0.2,0-0.3-0.1c-0.3-0.2-0.4-0.6-0.4-0.6V7.5c0-0.1,0-0.4,0.1-0.6c0.1-0.2,0.3-0.3,0.5-0.3c0.3,0,0.5,0,0.7,0.2
		c0.1,0.1,0.1,0.2,0.2,0.4c0,0.2,0,0.3,0,0.5V9c0.1,0,0.8,0,1,0.1c0.3,0.1,0.4,0.2,0.5,0.4c0,0.2,0,0.4,0,0.6
		c-0.2,0.3-0.6,0.3-1.1,0.3H15.2z"/>
</g>
<polygon fill="#CB9A50" points="8.6,16.2 5.8,19 7,19 7,22 10,22 10,19 11.4,19 "/>
<polygon fill="#CB9A50" points="15.8,23.4 13,20.6 13,22 7,22 10.5,25 13,25 13,26.1 "/>
<g>
	<path fill="#CB9A50" d="M13,13v15h15V13H13z M25.7,24.8c-0.1,0.1-0.2,0.2-0.3,0.2c-0.3,0.1-0.6,0.2-0.9,0.1c-0.1,0-0.3-0.1-0.4-0.2
		c0,0-0.1,0-0.1-0.1c0,0,0-0.1-0.1-0.1c-0.1-0.1-0.2-0.2-0.2-0.3c0-0.1-0.1-0.2-0.2-0.3c-0.1-0.1-0.1-0.1-0.1-0.2
		c0-0.1-0.1-0.1-0.1-0.2l-0.3-0.7c-1.5,0-3,0-4.6,0L18,23.9c0,0.1,0,0.1-0.1,0.2c0,0.1-0.1,0.1-0.1,0.2c-0.1,0.1-0.1,0.2-0.2,0.3
		c-0.1,0.1-0.1,0.2-0.2,0.3c0,0-0.1,0.1-0.1,0.1c0,0,0,0-0.1,0.1c-0.1,0.1-0.3,0.1-0.4,0.2c-0.3,0-0.6,0-0.9-0.1
		c-0.1-0.1-0.3-0.1-0.3-0.2c-0.1-0.1-0.1-0.2-0.1-0.3c0-0.1,0-0.2,0-0.3c0-0.1,0-0.2,0.1-0.2c0-0.1,0-0.1,0-0.1l3.4-7l0.1-0.2
		c0-0.1,0.1-0.2,0.2-0.3c0-0.1,0.1-0.2,0.2-0.3c0.1-0.1,0.2-0.2,0.2-0.3c0.1-0.1,0.2-0.1,0.3-0.2c0.3-0.1,0.8-0.1,1.1,0
		c0.1,0,0.2,0.1,0.3,0.2c0.1,0.1,0.2,0.2,0.2,0.3c0.1,0.1,0.1,0.2,0.2,0.3c0,0.1,0.1,0.2,0.2,0.3l0.1,0.2l3.4,7c0,0,0,0,0,0.1
		c0,0.1,0.1,0.2,0.1,0.2c0,0.1,0,0.2,0,0.3C25.8,24.6,25.7,24.7,25.7,24.8z"/>
	<path fill="#CB9A50" d="M20.9,19.2c-0.1-0.2-0.2-0.3-0.3-0.5c-0.1,0.2-0.2,0.3-0.2,0.5c-0.3,0.6-0.6,1.2-0.9,1.7l-0.3,0.6h2.9
		l-0.3-0.6C21.5,20.3,21.2,19.8,20.9,19.2z"/>
</g>
</svg>
