<?xml version="1.0" encoding="utf-8"?>
<!-- Generator: Adobe Illustrator 18.0.0, SVG Export Plug-In . SVG Version: 6.00 Build 0)  -->
<!DOCTYPE svg PUBLIC "-//W3C//DTD SVG 1.1//EN" "http://www.w3.org/Graphics/SVG/1.1/DTD/svg11.dtd">
<svg version="1.1" id="Layer_1" xmlns="http://www.w3.org/2000/svg" xmlns:xlink="http://www.w3.org/1999/xlink" x="0px" y="0px"
	 viewBox="0 0 20 20" enable-background="new 0 0 20 20" xml:space="preserve">
<g id="XMLID_110_">
	<g id="XMLID_111_">
		<path id="XMLID_115_" fill="#D0D2D3" d="M13.1,2.3c-0.2-0.1-0.4,0-0.4,0.3v10.8l4.4,2.2c0.5,0.2,0.9,0.1,0.9-0.4V4.8
			c0,0,0-0.1-0.1-0.1L13.1,2.3z"/>
		<path id="XMLID_114_" fill="#A6A8AB" d="M7.3,10.7l5.1-8.2c0.1-0.2,0.5-0.3,0.7-0.2l4.8,2.4c0,0,0,0.1,0,0.1l-5.3,8.6L7.3,10.7z"
			/>
		<path id="XMLID_113_" fill="#808184" d="M2.7,2.4C2.3,2.2,2.2,2.4,2.4,2.8l4.9,8l5.3,2.7L7.3,4.7c0,0,0,0,0,0L2.7,2.4z"/>
		<path id="XMLID_112_" fill="#58595B" d="M7.3,15.2c0,0.5-0.3,0.7-0.7,0.5l-4.2-2.1C2.2,13.5,2,13.2,2,12.9V2.7
			c0-0.4,0.3-0.5,0.6-0.4l4.7,2.4c0,0,0,0,0,0V15.2z"/>
	</g>
</g>
</svg>
