<?xml version="1.0" encoding="utf-8"?>
<!-- Generator: Adobe Illustrator 18.0.0, SVG Export Plug-In . SVG Version: 6.00 Build 0)  -->
<!DOCTYPE svg PUBLIC "-//W3C//DTD SVG 1.1//EN" "http://www.w3.org/Graphics/SVG/1.1/DTD/svg11.dtd">
<svg version="1.1" id="Layer_2" xmlns="http://www.w3.org/2000/svg" xmlns:xlink="http://www.w3.org/1999/xlink" x="0px" y="0px"
	 viewBox="0 0 32 32" enable-background="new 0 0 32 32" xml:space="preserve">
<g>
	<path fill="#808184" d="M24.8,3.7c-0.8,0-1.6,0.3-2.2,0.9l-0.6,0.6c0,0,0-0.1,0-0.1c0.3-0.2,0.5-0.6,0.5-1c0-0.7-0.6-1.3-1.3-1.3
		H10.9c-0.7,0-1.3,0.6-1.3,1.3c0,0.4,0.2,0.8,0.5,1c0,0,0,0.1,0,0.1L9.5,4.6C8.9,4,8.1,3.7,7.2,3.7c-1.7,0-3.1,1.4-3.1,3.1v1.6
		c0,1.7,0.7,3.3,2,4.4c1.1,0.9,2.4,1.4,3.9,1.4h2.2v0c0.3,0.2,0.7,0.5,1,0.6c-0.1,0.2-0.2,0.4-0.2,0.7c0,0.6,0.4,1.1,0.9,1.2
		c-0.1,0.1-0.1,0.3-0.1,0.5c0,0.6,0.4,1,0.8,1.2v6.7c-0.7,0.3-1.2,0.8-1.5,1.4h-1v2.5h7.6v-2.5h-1c-0.3-0.6-0.9-1.1-1.5-1.4v-6.7
		c0.5-0.2,0.8-0.6,0.8-1.2c0-0.2,0-0.3-0.1-0.5c0.5-0.1,0.9-0.6,0.9-1.2c0-0.2-0.1-0.5-0.2-0.7c0.4-0.2,0.7-0.4,1-0.6v0H22
		c1.4,0,2.8-0.5,3.9-1.4c1.3-1.1,2-2.7,2-4.4V6.8C27.9,5.1,26.5,3.7,24.8,3.7z M16,14.7c-3,0-5.5-2.5-5.5-5.5c0-1.1,0.2-2.5,0.5-3.8
		h10.1c0.3,1.3,0.5,2.7,0.5,3.8C21.5,12.3,19,14.7,16,14.7z M10.9,3.7h10.2c0.2,0,0.4,0.2,0.4,0.4c0,0.2-0.2,0.4-0.4,0.4H10.9
		c-0.2,0-0.4-0.2-0.4-0.4C10.5,3.9,10.7,3.7,10.9,3.7z M6.7,12.2C5.6,11.3,5,9.9,5,8.4V6.8c0-1.3,1-2.3,2.3-2.3
		c0.6,0,1.2,0.2,1.6,0.7l1.1,1.1c-0.2,1-0.3,2.1-0.3,2.9c0,1.6,0.6,3.1,1.6,4.2H10C8.8,13.5,7.6,13,6.7,12.2z M19,28.3H13v-0.8H19
		V28.3z M17.8,26.6h-3.6c0.3-0.3,0.6-0.6,1.1-0.7l0.3-0.1v-7.2h0.8v7.2l0.3,0.1C17.1,26,17.5,26.3,17.8,26.6z M16.8,17.7h-1.7
		c-0.2,0-0.4-0.2-0.4-0.4s0.2-0.4,0.4-0.4h1.7c0.2,0,0.4,0.2,0.4,0.4S17.1,17.7,16.8,17.7z M18.1,15.6c0,0.2-0.2,0.4-0.4,0.4h-0.8
		h-1.7h-0.8c-0.2,0-0.4-0.2-0.4-0.4c0-0.1,0.1-0.2,0.1-0.3c0.6,0.2,1.3,0.3,2,0.3s1.4-0.1,2-0.3C18.1,15.3,18.1,15.5,18.1,15.6z
		 M27,8.4c0,1.4-0.6,2.8-1.7,3.8c-0.9,0.8-2.1,1.2-3.3,1.2h-1.3c1-1.1,1.6-2.6,1.6-4.2c0-0.9-0.1-1.9-0.3-2.9l1.1-1.1
		c0.4-0.4,1-0.7,1.6-0.7c1.3,0,2.3,1,2.3,2.3V8.4z"/>
	<path fill="#808184" d="M17.1,8.6L16,6l-1.1,2.6l-2.3,0.3l1.7,1.7L13.7,13l2.3-1.2l2.3,1.2l-0.6-2.4l1.7-1.7L17.1,8.6z M17.1,11.4
		L16,10.9l-1.1,0.5l0.3-1l-0.8-0.8l1.1-0.2L16,8.2l0.5,1.2l1.1,0.2l-0.8,0.8L17.1,11.4z"/>
</g>
</svg>
