<?xml version="1.0" encoding="utf-8"?>
<!-- Generator: Adobe Illustrator 18.0.0, SVG Export Plug-In . SVG Version: 6.00 Build 0)  -->
<!DOCTYPE svg PUBLIC "-//W3C//DTD SVG 1.1//EN" "http://www.w3.org/Graphics/SVG/1.1/DTD/svg11.dtd">
<svg version="1.1" id="Layer_2" xmlns="http://www.w3.org/2000/svg" xmlns:xlink="http://www.w3.org/1999/xlink" x="0px" y="0px"
	 viewBox="0 0 32 32" enable-background="new 0 0 32 32" xml:space="preserve">
<g>
	<path fill="#808184" d="M19,20.1c0.5-0.1,1-0.5,1-1.1c0-1.5-2.5-1.6-2.5,0C17.5,19.9,18.3,20.2,19,20.1z"/>
	<path fill="#808184" d="M19,13V4H4v15h1.8H7v3l3.5,3H13v1.2V28h15V13H19z M5,18V5h13v8h-1.9l-2.8-5.7l-0.1-0.2
		c0-0.1-0.1-0.2-0.2-0.3c0-0.1-0.1-0.2-0.2-0.3c-0.1-0.1-0.2-0.2-0.2-0.3C12.5,6.1,12.4,6,12.3,6c-0.3-0.1-0.8-0.1-1.1,0
		c-0.1,0-0.2,0.1-0.3,0.2c-0.1,0.1-0.2,0.2-0.2,0.3c-0.1,0.1-0.1,0.2-0.2,0.3c0,0.1-0.1,0.2-0.2,0.3l-0.1,0.2l-3.4,7c0,0,0,0,0,0.1
		c0,0.1-0.1,0.2-0.1,0.2c0,0.1,0,0.2,0,0.3c0,0.1,0,0.2,0.1,0.3c0.1,0.1,0.2,0.2,0.3,0.2c0.3,0.1,0.6,0.2,0.9,0.1
		c0.1,0,0.3-0.1,0.4-0.2c0,0,0.1,0,0.1-0.1c0,0,0-0.1,0.1-0.1c0.1-0.1,0.2-0.2,0.2-0.3C8.9,15,8.9,14.9,9,14.8
		c0-0.1,0.1-0.1,0.1-0.2c0-0.1,0-0.1,0.1-0.2l0.3-0.7c1.2,0,2.3,0,3.5,0V18h-2.6l-1.8-1.8L6.8,18H5z M10.3,12l0.3-0.7
		c0.3-0.5,0.6-1.1,0.9-1.7c0.1-0.2,0.2-0.3,0.2-0.5c0.1,0.2,0.2,0.4,0.3,0.5c0.3,0.6,0.6,1.2,0.9,1.7l0.3,0.7H10.3z M10,22v-3h1.4
		H13v1.7V22H10z M15.9,18.9c0-0.7,0.2-1.2,0.6-1.7h-0.2c-0.4,0-0.8-0.3-0.8-0.7c0-0.4,0.3-0.7,0.8-0.7h1.7v-0.4
		c0-0.3,0.3-0.6,0.7-0.6c0.4,0,0.7,0.3,0.7,0.6v0.4h1.8c0.4,0,0.8,0.3,0.8,0.7c0,0.4-0.3,0.7-0.8,0.7h-0.2c0.4,0.4,0.6,1,0.6,1.7
		c0,0.8-0.4,1.6-1,2C18.9,22.3,15.9,21.2,15.9,18.9z M24.8,25.4c-0.2,0.2-0.5,0.3-0.5,0.3h-6.1c-0.7,0-1.2-0.4-1.2-0.7v-1.8
		c0-0.2,0-0.4,0-0.6c0-0.4,0.3-0.6,0.7-0.6c0.1,0,0.4,0,0.5,0c0.4,0.1,0.5,0.6,0.5,1c0,0.1,0,1.1,0.1,1.2c0.1,0,0.2,0.1,0.9,0.1
		c0.6,0,0.6,0,0.6,0h4.2c0,0,0.5,0.1,0.6,0.5C25,25,24.9,25.2,24.8,25.4z M26.1,19.2c-0.2,0.3-0.7,0.3-1.2,0.3h-0.3v1.7
		c0,0.2,0,0.4-0.2,0.6c-0.1,0.1-0.1,0.2-0.2,0.2c-0.1,0.1-0.3,0.1-0.4,0.1c-0.1,0-0.3,0-0.4-0.1C23,21.8,23,21.4,23,21.4v-4.9
		c0-0.1,0-0.5,0.1-0.7c0.1-0.2,0.3-0.3,0.6-0.3c0.3,0,0.6,0,0.7,0.2c0.1,0.1,0.1,0.3,0.2,0.4c0.1,0.2,0.1,0.4,0,0.6v1.4
		c0.2,0,0.9,0,1,0.1c0.4,0.1,0.5,0.2,0.5,0.4C26.2,18.7,26.2,19,26.1,19.2z"/>
</g>
</svg>
